<?xml version="1.0" encoding="utf-8"?>
<!-- Generator: Adobe Illustrator 16.0.0, SVG Export Plug-In . SVG Version: 6.00 Build 0)  -->
<!DOCTYPE svg PUBLIC "-//W3C//DTD SVG 1.0//EN" "http://www.w3.org/TR/2001/REC-SVG-20010904/DTD/svg10.dtd">
<svg version="1.0" id="Layer_1" xmlns="http://www.w3.org/2000/svg" xmlns:xlink="http://www.w3.org/1999/xlink" x="0px" y="0px"
	 width="100px" height="100px" viewBox="0 0 100 100" enable-background="new 0 0 100 100" xml:space="preserve">
<path d="M53.981,56.667c4.219-6.719,3.438-15.69-2.412-21.537l-6.159-6.158c-3.398-3.398-5.104-7.852-5.104-12.305
	c-5.755,5.762-9.31,13.724-9.31,22.513v5.176c-5.098,0-9.231-4.134-9.231-9.231c-5.85,5.853-6.635,14.817-2.412,21.543H53.981z"/>
<path d="M10,63.333V70c0,7.356,5.967,13.333,13.333,13.333H50c7.36,0,13.333-5.963,13.333-13.333L90,68.333v-5H10z"/>
</svg>
