<svg width="64" height="64" viewBox="0 0 64 64" fill="none" xmlns="http://www.w3.org/2000/svg">
<path d="M44.76 11.5798L19.07 2.5798C18.8436 2.50314 18.6023 2.4813 18.3659 2.51607C18.1295 2.55084 17.9047 2.64122 17.71 2.7798C17.5142 2.91713 17.3547 3.09985 17.2449 3.31232C17.1352 3.52479 17.0786 3.76068 17.08 3.9998V21.6798C17.08 22.0776 17.238 22.4592 17.5193 22.7405C17.8006 23.0218 18.1822 23.1798 18.58 23.1798V60.6798H43.86V33.4398C43.9906 33.4751 44.1248 33.4952 44.26 33.4998C44.6578 33.4998 45.0393 33.3418 45.3206 33.0605C45.6019 32.7792 45.76 32.3976 45.76 31.9998V12.9998C45.7612 12.6886 45.6656 12.3848 45.4864 12.1303C45.3072 11.8759 45.0534 11.6835 44.76 11.5798V11.5798Z" fill="#155be8" id="id_101"></path>
<path d="M27.7401 20.1797H9.43005C8.60163 20.1797 7.93005 20.8513 7.93005 21.6797V59.9997C7.93005 60.8281 8.60163 61.4997 9.43005 61.4997H27.7401C28.5685 61.4997 29.2401 60.8281 29.2401 59.9997V21.6797C29.2401 20.8513 28.5685 20.1797 27.7401 20.1797Z" fill="#97CCEF" id="id_102"></path>
<path d="M44.26 61.5H27.74C27.3422 61.5 26.9606 61.342 26.6793 61.0607C26.398 60.7794 26.24 60.3978 26.24 60C26.24 59.6022 26.398 59.2206 26.6793 58.9393C26.9606 58.658 27.3422 58.5 27.74 58.5H44.26C44.6578 58.5 45.0393 58.658 45.3207 58.9393C45.602 59.2206 45.76 59.6022 45.76 60C45.76 60.3978 45.602 60.7794 45.3207 61.0607C45.0393 61.342 44.6578 61.5 44.26 61.5Z" fill="black" id="id_103"></path>
<path d="M54.5699 30.5H37.0699C36.2415 30.5 35.5699 31.1716 35.5699 32V60C35.5699 60.8284 36.2415 61.5 37.0699 61.5H54.5699C55.3984 61.5 56.0699 60.8284 56.0699 60V32C56.0699 31.1716 55.3984 30.5 54.5699 30.5Z" fill="#97CCEF" id="id_104"></path>
<path d="M60 61.5H4C3.60218 61.5 3.22064 61.342 2.93934 61.0607C2.65804 60.7794 2.5 60.3978 2.5 60C2.5 59.6022 2.65804 59.2206 2.93934 58.9393C3.22064 58.658 3.60218 58.5 4 58.5H60C60.3978 58.5 60.7794 58.658 61.0607 58.9393C61.342 59.2206 61.5 59.6022 61.5 60C61.5 60.3978 61.342 60.7794 61.0607 61.0607C60.7794 61.342 60.3978 61.5 60 61.5Z" fill="#0d53de" id="id_105"></path>
</svg>