<?xml version="1.0" encoding="UTF-8"?>
<!DOCTYPE svg PUBLIC "-//W3C//DTD SVG 1.1//EN" "http://www.w3.org/Graphics/SVG/1.1/DTD/svg11.dtd">
<!-- Creator: CorelDRAW -->
<svg xmlns="http://www.w3.org/2000/svg" xml:space="preserve" width="512px" height="512px" version="1.1" style="shape-rendering:geometricPrecision; text-rendering:geometricPrecision; image-rendering:optimizeQuality; fill-rule:evenodd; clip-rule:evenodd"
viewBox="0 0 512 512"
 xmlns:xlink="http://www.w3.org/1999/xlink">
 <defs>
  <style type="text/css">
   <![CDATA[
    .fil0 {fill:black}
   ]]>
  </style>
 </defs>
 <g id="Layer_x0020_1">
  <metadata id="CorelCorpID_0Corel-Layer"/>
  <path class="fil0" d="M485 266l-37 0 0 -35c0,-20 -16,-36 -35,-36l-314 0c-19,0 -35,16 -35,36l0 35 -36 0c-16,0 -28,-12 -28,-27l0 -129c0,-15 12,-28 28,-28l456 0c16,0 28,13 28,28l0 129c0,15 -12,27 -27,27zm-52 0l-354 0 0 -35c0,-12 9,-21 21,-21l312 0c12,0 21,9 21,21l0 35zm-366 -102c-12,0 -23,-10 -23,-23 0,-13 11,-24 23,-24 13,0 24,11 24,24 0,13 -11,23 -24,23zm0 -33c-5,0 -8,4 -8,9 0,5 3,9 8,9 5,0 9,-4 9,-9 0,-5 -4,-9 -9,-9zm66 33c-13,0 -23,-10 -23,-23 0,-13 10,-24 23,-24 13,0 23,11 23,24 0,13 -10,23 -23,23zm0 -33c-5,0 -9,4 -9,9 0,5 4,9 9,9 5,0 9,-4 9,-9 0,-5 -4,-9 -9,-9z"/>
  <path class="fil0" d="M119 430c-1,0 -2,0 -2,-1 -4,-1 -6,-5 -5,-8 2,-7 5,-13 9,-19 3,-5 6,-10 7,-14 1,-5 1,-11 1,-17 0,-6 0,-13 2,-20 1,-6 5,-13 9,-18 2,-5 5,-10 7,-15 0,-4 5,-6 8,-5 4,0 7,5 6,8 -2,7 -6,13 -9,19 -3,5 -6,10 -7,15 -1,5 -1,10 -1,16 0,7 0,13 -2,20 -2,7 -5,13 -9,18 -3,5 -6,10 -7,15 -1,4 -4,6 -7,6z"/>
  <path class="fil0" d="M199 430c0,0 -1,0 -2,-1 -3,-1 -6,-5 -5,-8 2,-7 6,-13 9,-18 3,-5 6,-10 7,-15 2,-5 2,-11 2,-17 0,-6 0,-13 1,-20 2,-6 6,-12 9,-18 3,-5 6,-10 7,-15 1,-4 5,-6 9,-5 4,0 6,5 5,8 -1,7 -5,13 -9,19 -2,5 -5,10 -7,15 -1,4 -1,10 -1,16 0,7 0,13 -2,20 -1,7 -5,13 -8,19 -3,5 -6,9 -7,14 -2,4 -5,6 -8,6z"/>
  <path class="fil0" d="M279 430c-1,0 -1,0 -2,-1 -4,-1 -6,-5 -5,-9 2,-6 5,-12 8,-17 3,-6 7,-10 8,-16 1,-5 1,-10 1,-16 0,-7 0,-13 2,-20 1,-7 5,-13 9,-19 2,-5 5,-10 7,-15 1,-4 5,-6 9,-5 4,1 6,5 5,9 -2,7 -6,13 -9,18 -3,5 -6,10 -7,15 -1,5 -1,11 -1,17 0,6 0,13 -2,20 -2,7 -5,13 -9,19 -3,5 -6,9 -7,14 -1,4 -4,6 -7,6z"/>
  <path class="fil0" d="M360 430c-1,0 -2,0 -2,-1 -4,-1 -6,-5 -5,-8 2,-7 5,-13 9,-19 3,-5 5,-10 7,-14 1,-5 1,-11 1,-17 0,-6 0,-13 2,-20 1,-6 5,-13 8,-18 3,-5 6,-10 7,-15 1,-4 5,-6 9,-5 4,0 6,5 6,8 -2,7 -6,13 -9,19 -3,5 -6,10 -7,15 -2,5 -2,10 -2,16 0,7 0,13 -2,20 -2,7 -5,13 -8,18 -3,5 -6,10 -7,15 -1,4 -5,6 -7,6z"/>
 </g>
</svg>
