<svg version="1.0" id="Layer_1" xmlns="http://www.w3.org/2000/svg" xmlns:xlink="http://www.w3.org/1999/xlink" x="0px" y="0px" width="100px" height="100px" viewBox="0 0 100 100" enable-background="new 0 0 100 100" xml:space="preserve">
<path d="M30,26.667C30,28.5,28.499,30,26.667,30H13.333C11.501,30,10,28.5,10,26.667V13.333C10,11.5,11.501,10,13.333,10h13.334
	C28.499,10,30,11.5,30,13.333V26.667z" id="id_101"></path>
<rect x="36.667" y="10" width="10" height="6.667" id="id_102"></rect>
<rect x="36.667" y="23.333" width="10" height="6.667" id="id_103" style="fill: rgb(3, 3, 3);"></rect>
<path d="M73.333,26.667C73.333,28.5,71.833,30,70,30H56.667c-1.833,0-3.334-1.5-3.334-3.333V13.333c0-1.833,1.501-3.333,3.334-3.333
	H70c1.833,0,3.333,1.5,3.333,3.333V26.667z" id="id_104"></path>
<rect x="80" y="10" width="10" height="6.667" id="id_105"></rect>
<rect x="80" y="23.333" width="10" height="6.667" id="id_106"></rect>
<path d="M30,56.667C30,58.499,28.499,60,26.667,60H13.333C11.501,60,10,58.499,10,56.667V43.333C10,41.5,11.501,40,13.333,40h13.334
	C28.499,40,30,41.5,30,43.333V56.667z" id="id_107"></path>
<rect x="36.667" y="40" width="10" height="6.667" id="id_108"></rect>
<rect x="36.667" y="53.334" width="10" height="6.666" id="id_109"></rect>
<path d="M73.333,56.667c0,1.832-1.5,3.333-3.333,3.333H56.667c-1.833,0-3.334-1.501-3.334-3.333V43.333
	c0-1.833,1.501-3.333,3.334-3.333H70c1.833,0,3.333,1.5,3.333,3.333V56.667z" id="id_110"></path>
<rect x="80" y="40" width="10" height="6.667" id="id_111"></rect>
<rect x="80" y="53.334" width="10" height="6.666" id="id_112"></rect>
<path d="M30,86.667C30,88.499,28.499,90,26.667,90H13.333C11.501,90,10,88.499,10,86.667V73.333C10,71.501,11.501,70,13.333,70
	h13.334C28.499,70,30,71.501,30,73.333V86.667z" id="id_113"></path>
<rect x="36.667" y="70" width="10" height="6.667" id="id_114"></rect>
<rect x="36.667" y="83.333" width="10" height="6.667" id="id_115"></rect>
<path d="M73.333,86.667c0,1.832-1.5,3.333-3.333,3.333H56.667c-1.833,0-3.334-1.501-3.334-3.333V73.333
	c0-1.832,1.501-3.333,3.334-3.333H70c1.833,0,3.333,1.501,3.333,3.333V86.667z" id="id_116"></path>
<rect x="80" y="70" width="10" height="6.667" id="id_117"></rect>
<rect x="80" y="83.333" width="10" height="6.667" id="id_118"></rect>
</svg>