<?xml version="1.0" encoding="UTF-8"?>
<!DOCTYPE svg PUBLIC "-//W3C//DTD SVG 1.1//EN" "http://www.w3.org/Graphics/SVG/1.1/DTD/svg11.dtd">
<!-- Creator: CorelDRAW -->
<svg xmlns="http://www.w3.org/2000/svg" xml:space="preserve" width="1.70666in" height="1.70666in" version="1.1" style="shape-rendering:geometricPrecision; text-rendering:geometricPrecision; image-rendering:optimizeQuality; fill-rule:evenodd; clip-rule:evenodd"
viewBox="0 0 1707 1707"
 xmlns:xlink="http://www.w3.org/1999/xlink">
 <defs>
  <style type="text/css">
   <![CDATA[
    .fil0 {fill:black}
   ]]>
  </style>
 </defs>
 <g id="Layer_x0020_1">
  <metadata id="CorelCorpID_0Corel-Layer"/>
  <g id="_354554008">
   <g>
    <g>
     <g>
      <g id="_354539056">
       <path class="fil0" d="M603 869c-6,0 -11,-2 -16,-6 -9,-9 -10,-23 -1,-33 3,-3 82,-94 -3,-241 -53,-92 -50,-166 -38,-213 13,-51 40,-81 41,-82 9,-10 23,-10 33,-2 9,9 10,24 1,33 -4,4 -82,94 3,241 53,92 50,167 38,214 -13,51 -40,81 -41,82 -5,5 -11,7 -17,7z"/>
      </g>
      <g id="_354539800">
       <path class="fil0" d="M853 869c-5,0 -11,-2 -15,-6 -10,-9 -11,-23 -2,-33 3,-3 82,-94 -3,-241 -53,-92 -50,-166 -38,-213 13,-51 40,-81 41,-82 9,-10 24,-10 33,-2 10,9 10,24 2,33 -4,4 -82,94 3,241 53,92 50,167 38,214 -14,51 -40,81 -42,82 -4,5 -10,7 -17,7z"/>
      </g>
      <g id="_354547936">
       <path class="fil0" d="M1104 869c-6,0 -12,-2 -16,-6 -10,-9 -10,-23 -1,-33 3,-3 81,-94 -3,-241 -54,-92 -50,-166 -39,-213 14,-51 40,-81 42,-82 8,-10 23,-10 33,-2 9,9 10,24 1,33 -4,4 -82,94 3,241 53,92 50,167 38,214 -13,51 -40,81 -41,82 -5,5 -11,7 -17,7z"/>
      </g>
     </g>
     <g id="_354551752">
      <path class="fil0" d="M1371 1073l-1035 0c-13,0 -24,-10 -24,-23 0,-13 11,-24 24,-24l1035 0c13,0 23,11 23,24 0,13 -10,23 -23,23z"/>
     </g>
     <g id="_354549784">
      <path class="fil0" d="M1371 1247l-1035 0c-13,0 -24,-11 -24,-24 0,-13 11,-23 24,-23l1035 0c13,0 23,10 23,23 0,13 -10,24 -23,24z"/>
     </g>
     <g id="_354566608">
      <path class="fil0" d="M1371 1420l-1035 0c-13,0 -24,-10 -24,-23 0,-13 11,-23 24,-23l1035 0c13,0 23,10 23,23 0,13 -10,23 -23,23z"/>
     </g>
    </g>
    <g id="_354550312">
     <path class="fil0" d="M1516 1706l-1325 0c-105,0 -190,-85 -190,-190l0 -1325c0,-105 85,-190 190,-190l1325 0c105,0 190,85 190,190l0 1325c0,105 -85,190 -190,190zm-1325 -1659c-79,0 -144,65 -144,144l0 1325c0,79 65,143 144,143l1325 0c79,0 143,-64 143,-143l0 -1325c0,-79 -64,-144 -143,-144l-1325 0z"/>
    </g>
   </g>
  </g>
 </g>
</svg>
