<?xml version="1.0" encoding="UTF-8"?><svg id="Layer_1" xmlns="http://www.w3.org/2000/svg" viewBox="0 0 48 48"><path d="M47.705,7.041c-.104-.102-.219-.192-.355-.295-1.8-1.28-4.303-.864-5.584,.925l-.266,.374c-.5-.197-1.042-.265-1.588-.173-.79,.133-1.481,.566-1.943,1.215l-.679,.946c.258-.007,.508-.022,.769-.026,1.601,.01,3.094,.738,4.037,1.947,.425,.545,.831,1.103,1.227,1.669l.328-.457c.471-.652,.658-1.447,.528-2.239-.116-.705-.483-1.321-1.014-1.774l.228-.32c.642-.894,1.895-1.099,2.777-.473,.043,.032,.088,.062,.125,.1,.393,.39,1.024,.388,1.415-.005,.389-.392,.387-1.025-.005-1.414Z"/><path d="M31,22h-3c-1.103,0-2,.897-2,2h7c0-1.103-.897-2-2-2Z"/><path d="M47.968,29.742c-.583-3.163-1.566-6.246-2.924-9.164-1.219-2.62-2.742-5.107-4.525-7.393-.587-.752-1.519-1.172-2.43-1.178C13.903,12.385,4.624,26.25,1.326,34H42.211c1.072-1.039,2.476-1.747,4.059-1.944,.54-.067,1.032-.357,1.352-.793,.318-.436,.444-.99,.346-1.52Zm-8.11-4.627c-.369,.554-.987,.885-1.655,.885H16.01c-.938,0-1.373-1.192-.639-1.776,5.367-4.275,12.306-6.675,20.677-7.145,.354-.02,.704,.15,.904,.443,1.003,1.475,1.877,3.009,2.603,4.568,.168,.367,.33,.738,.485,1.111,.264,.634,.196,1.349-.182,1.914Z"/><path d="M.549,36c-.187,.534-.343,1.02-.464,1.433-.18,.611-.064,1.253,.317,1.762,.383,.512,.97,.805,1.61,.805H38.139c1.025,0,1.882-.76,1.991-1.767,.087-.794,.309-1.544,.637-2.233H.549Z"/></svg>