<svg width="512" height="512" viewBox="0 0 512 512" fill="none" xmlns="http://www.w3.org/2000/svg">
<path d="M405.333 469.333H320C314.343 469.333 308.917 467.085 304.916 463.084C300.915 459.084 298.668 453.658 298.667 448V320H213.333V448C213.333 453.658 211.085 459.084 207.085 463.084C203.084 467.085 197.658 469.333 192 469.333H106.667C89.6995 469.314 73.4321 462.565 61.4339 450.566C49.4358 438.568 42.6867 422.301 42.6674 405.333V233.247C42.6262 220.245 45.5759 207.407 51.2886 195.727C57.0012 184.047 65.3237 173.838 75.6124 165.888L216.712 56.1479C227.943 47.4037 241.77 42.6558 256.004 42.6558C270.238 42.6558 284.064 47.4037 295.295 56.1479L436.395 165.893C446.684 173.842 455.007 184.051 460.72 195.731C466.432 207.411 469.382 220.248 469.34 233.25V405.333C469.321 422.302 462.571 438.571 450.571 450.569C438.572 462.567 422.303 469.315 405.333 469.333V469.333ZM341.333 426.666H405.333C410.989 426.659 416.412 424.41 420.411 420.41C424.41 416.411 426.66 410.989 426.666 405.333V233.247C426.688 226.747 425.214 220.329 422.359 214.489C419.504 208.649 415.344 203.545 410.2 199.57L269.1 89.8259C265.356 86.9102 260.746 85.327 256 85.327C251.255 85.327 246.645 86.9102 242.9 89.8259L101.8 199.568C96.6561 203.542 92.495 208.647 89.6389 214.486C86.7828 220.326 85.3083 226.744 85.3294 233.245V405.333C85.336 410.989 87.5857 416.411 91.585 420.41C95.5843 424.41 101.007 426.659 106.662 426.666H170.662V320C170.675 308.688 175.175 297.843 183.174 289.844C191.172 281.845 202.017 277.346 213.329 277.333H298.662C309.975 277.345 320.821 281.844 328.821 289.843C336.82 297.842 341.32 308.687 341.333 320V426.666Z" fill="#0073ff" id="id_102"></path>
</svg>