<svg xmlns="http://www.w3.org/2000/svg" xml:space="preserve" width="6.72in" height="6.72in" style="shape-rendering:geometricPrecision; text-rendering:geometricPrecision; image-rendering:optimizeQuality; fill-rule:evenodd; clip-rule:evenodd" viewBox="0 0 6.72 6.72" xmlns:xlink="http://www.w3.org/1999/xlink">
 <defs>
  <style type="text/css">
   
    .fil1 {fill:white;fill-rule:nonzero}
    .fil0 {fill:url(#id0)}
   
  </style>
  <linearGradient id="id0" gradientUnits="userSpaceOnUse" x1="1.38953" y1="-0.0529488" x2="5.33047" y2="6.77295">
   <stop offset="0" style="stop-color: rgb(17, 0, 255);" id="id_110"></stop>
   <stop offset="0.490196" style="stop-color: rgb(0, 166, 255);" id="id_111"></stop>
   <stop offset="1" style="stop-color: rgb(0, 217, 255);" id="id_112"></stop>
  </linearGradient>
 </defs>
 <g id="Layer_x0020_1">
  <metadata id="CorelCorpID_0Corel-Layer"></metadata>
  <path class="fil0" d="M6.31603 1.65333c0.942567,1.63257 0.383209,3.72013 -1.24937,4.6627 -1.63257,0.942567 -3.72013,0.383209 -4.6627,-1.24937 -0.942567,-1.63257 -0.383209,-3.72013 1.24937,-4.6627 1.63257,-0.942567 3.72013,-0.383209 4.6627,1.24937z" id="id_107"></path>
  <path class="fil1" d="M2.12953 3.76633l0 -0.812016 0.110224 0 0.426524 0.637516 0 -0.637516 0.103039 0 0 0.812016 -0.110224 0 -0.42652 -0.638079 0 0.638079 -0.103043 0zm0.822606 0l0 -0.812016 0.587035 0 0 0.0958543 -0.479646 0 0 0.248614 0.449209 0 0 0.0952874 -0.449209 0 0 0.276409 0.498551 0 0 0.0958504 -0.605941 0zm0.896154 0l-0.215531 -0.812016 0.110224 0 0.123646 0.532205c0.0132362,0.0557756 0.0245787,0.111169 0.0342205,0.166185 0.0207953,-0.0867795 0.0328937,-0.136689 0.0366772,-0.150114l0.154465 -0.548276 0.129697 0 0.116272 0.41102c0.0291142,0.101902 0.0500984,0.197756 0.0631457,0.28737 0.0102087,-0.0512323 0.0238228,-0.11022 0.0404606,-0.176583l0.127236 -0.521807 0.108142 0 -0.222713 0.812016 -0.103602 0 -0.171102 -0.618606c-0.0143701,-0.0518031 -0.022878,-0.0835669 -0.0255236,-0.0952874 -0.00850787,0.0372441 -0.0164488,0.0690079 -0.0238228,0.0952874l-0.172232 0.618606 -0.109657 0z" id="id_108"></path>
  <path class="fil1" d="M3.37661 1.59201l0.447091 -0.332496 0.0632795 -0.0470591 0.0355709 0.0704685 0.260295 0.515709 0.550437 -0.0866457 0.0777283 -0.0122362 -0.00125197 0.0788307 -0.00917323 0.577461 0.527587 0.179059 0.0747323 0.0253661 -0.0377953 0.0693228 -0.276524 0.50711 0.383937 0.403728 0.0543858 0.057189 -0.0655709 0.0437441 -0.480559 0.320555 0.152398 0.536126 0.0215236 0.0757205 -0.078752 0.00829921 -0.574217 0.0604843 -0.114134 0.545177 -0.0161772 0.0772638 -0.0733071 -0.0291417 -0.536831 -0.213409 -0.354453 0.429744 -0.0502874 0.0609685 -0.0514213 -0.0599331 -0.375937 -0.438181 -0.513665 0.215843 -0.0727992 0.0305906 -0.0177244 -0.0771535 -0.12926 -0.56276 -0.554835 -0.0475748 -0.0789291 -0.00676772 0.0201417 -0.0764724 0.147154 -0.558673 -0.46922 -0.299992 -0.0664724 -0.0425079 0.0532047 -0.0581654 0.389823 -0.426177 -0.27628 -0.484079 -0.039 -0.0683386 0.074378 -0.0268661 0.543106 -0.196157 -0.0196614 -0.556827 -0.00278346 -0.0788819 0.0779606 0.0107283 0.572512 0.0787677 0.241256 -0.501969 0.034248 -0.071248 0.0640827 0.0457559 0.470189 0.335701zm0.46289 -0.178783l-0.422571 0.31426 -0.0387638 0.0288268 -0.0392756 -0.0280472 -0.445386 -0.317988 -0.228043 0.474472 -0.0210236 0.0437559 -0.0476496 -0.00655906 -0.542189 -0.0745945 0.0185787 0.526224 0.00170866 0.0482756 -0.0456693 0.0164961 -0.514394 0.185787 0.261118 0.45752 0.0238504 0.0417835 -0.0326929 0.0357323 -0.369299 0.403744 0.443654 0.28365 0.0409134 0.0261575 -0.0122992 0.0466772 -0.139307 0.528882 0.524335 0.0449567 0.0484331 0.00415354 0.010874 0.0473543 0.122413 0.532961 0.485402 -0.203965 0.0445394 -0.0187165 0.0316772 0.0369252 0.356201 0.415173 0.334969 -0.406122 0.030811 -0.0373583 0.0448858 0.0178465 0.508409 0.20211 0.107894 -0.515366 0.00993307 -0.0474528 0.0483346 -0.00508661 0.543803 -0.0572795 -0.144031 -0.506677 -0.0131575 -0.0462795 0.0402126 -0.0268189 0.455197 -0.303638 -0.362862 -0.381567 -0.0333189 -0.0350315 0.0231732 -0.0424882 0.261886 -0.48028 -0.498622 -0.169224 -0.0457717 -0.0155354 0.000771654 -0.0484606 0.00869291 -0.547087 -0.520382 0.0819134 -0.047685 0.00750787 -0.0217717 -0.0431457 -0.246504 -0.488378z" id="id_109" style="fill: rgb(255, 255, 255);"></path>
 </g>
</svg>