<svg id="Layer_1" data-name="Layer 1" xmlns="http://www.w3.org/2000/svg" xmlns:xlink="http://www.w3.org/1999/xlink" viewBox="0 0 48 48">
  <defs>
    <style>
      .cls-1 {
        fill: url(#linear-gradient-2);
      }

      .cls-2 {
        fill: url(#linear-gradient-6);
      }

      .cls-3 {
        fill: url(#linear-gradient-5);
      }

      .cls-4 {
        fill: url(#linear-gradient-7);
      }

      .cls-5 {
        fill: url(#linear-gradient-9);
      }

      .cls-6 {
        fill: url(#linear-gradient-3);
      }

      .cls-7 {
        fill: url(#linear-gradient);
      }

      .cls-8 {
        fill: url(#linear-gradient-4);
      }

      .cls-9 {
        fill: url(#linear-gradient-8);
      }
    </style>
    <linearGradient id="linear-gradient" x1="9" y1="17.499" x2="30.501" y2="39" gradientUnits="userSpaceOnUse">
      <stop offset="0" stop-color="#3212e8" id="id_110"></stop>
      <stop offset=".25" stop-color="#db181b" id="id_111"></stop>
      <stop offset=".75" stop-color="#5100ff" id="id_112"></stop>
      <stop offset="1" stop-color="#c40000" id="id_113"></stop>
    </linearGradient>
    <linearGradient id="linear-gradient-2" x1="21.373" y1="12.519" x2="35.481" y2="26.627" gradientUnits="userSpaceOnUse">
      <stop offset="0" stop-color="#f0f2f2" id="id_114"></stop>
      <stop offset="1" stop-color="#cacfd0" id="id_115"></stop>
    </linearGradient>
    <linearGradient id="linear-gradient-3" x1="9.441" y1="29.724" x2="18.276" y2="38.559" gradientUnits="userSpaceOnUse">
      <stop offset="0" stop-color="#c6cbcc" id="id_116"></stop>
      <stop offset="1" stop-color="#9fa5a6" id="id_117"></stop>
    </linearGradient>
    <linearGradient id="linear-gradient-4" x1="35.827" y1="2.033" x2="45.608" y2="11.814" gradientUnits="userSpaceOnUse">
      <stop offset="0" stop-color="#db1818" id="id_118"></stop>
      <stop offset="1" stop-color="#2400f2" id="id_119"></stop>
    </linearGradient>
    <linearGradient id="linear-gradient-5" x1="25" y1="18" x2="35" y2="18" xlink:href="#linear-gradient-4"></linearGradient>
    <linearGradient id="linear-gradient-6" x1="27.88" y1="15.88" x2="32.12" y2="20.12" gradientUnits="userSpaceOnUse">
      <stop offset="0" stop-color="#6fc6fc" id="id_120"></stop>
      <stop offset="1" stop-color="#50a7f6" id="id_121"></stop>
    </linearGradient>
    <linearGradient id="linear-gradient-7" x1="3.119" y1="44.881" x2="9.457" y2="38.543" xlink:href="#linear-gradient-2"></linearGradient>
    <linearGradient id="linear-gradient-8" x1="6.119" y1="47.88" x2="12.457" y2="41.543" xlink:href="#linear-gradient-2"></linearGradient>
    <linearGradient id="linear-gradient-9" x1=".119" y1="41.88" x2="6.457" y2="35.543" xlink:href="#linear-gradient-2"></linearGradient>
  </defs>
  <path class="cls-7" d="m18.21,17.1c-4.79-.52-9.64,1.07-13.21,4.4-.75.7-.22,1.93.81,1.93,2.47-.02,4.96.29,7.4.95l10.41,10.41c.66,2.44.97,4.93.95,7.4,0,1.03,1.23,1.56,1.93.81,3.33-3.57,4.92-8.42,4.4-13.21l-12.69-12.69Z" id="id_101"></path>
  <path class="cls-1" d="m24.338,9.554c-4.726,4.726-12.304,15.223-14.737,21.531-.282.731-.09,1.557.463,2.111l4.74,4.74c.554.554,1.38.745,2.111.463,6.309-2.433,16.805-10.011,21.531-14.737,5.705-5.705,6.499-14.695,6.553-18.648.016-1.124-.889-2.029-2.014-2.014-3.953.055-12.943.848-18.648,6.553Z" id="id_102"></path>
  <path class="cls-6" d="m18.379,36.379l-6.757-6.757c-.379-.379-.623-.838-.756-1.321-.501.987-.933,1.927-1.264,2.785-.282.731-.091,1.557.463,2.111l4.74,4.74c.554.554,1.38.745,2.111.463.858-.331,1.797-.763,2.785-1.264-.483-.134-.941-.377-1.321-.756Z" id="id_103"></path>
  <path class="cls-8" d="m43.545,14.698c1.165-3.828,1.425-7.516,1.455-9.685.015-1.115-.898-2.028-2.013-2.013-2.169.03-5.857.29-9.685,1.455,1.866,4.659,5.584,8.376,10.243,10.243Z" id="id_104"></path>
  <circle class="cls-3" cx="30" cy="18" r="5" id="id_105"></circle>
  <circle class="cls-2" cx="30" cy="18" r="3" id="id_106"></circle>
  <path class="cls-4" d="m4,45c-.256,0-.512-.098-.707-.293-.391-.391-.391-1.023,0-1.414l5-5c.391-.391,1.023-.391,1.414,0s.391,1.023,0,1.414l-5,5c-.195.195-.451.293-.707.293Z" id="id_107"></path>
  <path class="cls-9" d="m10,45c-.256,0-.512-.098-.707-.293-.391-.391-.391-1.023,0-1.414l2-2.001c.391-.391,1.023-.391,1.414,0s.391,1.023,0,1.414l-2,2.001c-.195.195-.451.293-.707.293Z" id="id_108"></path>
  <path class="cls-5" d="m4,38.999c-.256,0-.512-.098-.707-.293-.391-.391-.391-1.023,0-1.414l2-1.999c.391-.391,1.023-.391,1.414,0s.391,1.023,0,1.414l-2,1.999c-.195.195-.451.293-.707.293Z" id="id_109"></path>
</svg>