<svg xmlns="http://www.w3.org/2000/svg" viewBox="0 0 48 48"><defs><style>.cls-1{fill:#7b8c8c;}.cls-2{fill:#8fa5a5;}.cls-3{fill:#eaeff0;}</style></defs><title>Stair</title><g id="Stair"><rect class="cls-1" x="33" y="3.5" width="2" height="15" rx="1" id="id_101" style="fill: rgb(16, 134, 207);"></rect><rect class="cls-1" x="23" y="10.5" width="2" height="15" rx="1" id="id_102" style="fill: rgb(16, 135, 209);"></rect><rect class="cls-1" x="13" y="17.5" width="2" height="15" rx="1" id="id_103" style="fill: rgb(18, 131, 201);"></rect><path class="cls-2" d="M5,25.3a1,1,0,0,1-.574-1.82l27.709-19.4A5.967,5.967,0,0,1,35.576,3H43a1,1,0,0,1,0,2H35.576a3.976,3.976,0,0,0-2.293.723l-27.71,19.4A.994.994,0,0,1,5,25.3Z" id="id_104" style="fill: rgb(10, 10, 10);"></path><path class="cls-3" d="M4,43V37a2,2,0,0,1,2-2h7V31a2,2,0,0,1,2-2h8V24a2,2,0,0,1,2-2h8V17.071a2,2,0,0,1,2-2h7a2,2,0,0,1,2,2V43a2,2,0,0,1-2,2H6A2,2,0,0,1,4,43Z" id="id_105" style="fill: rgb(15, 15, 15);"></path></g></svg>