<?xml version="1.0" encoding="UTF-8" standalone="no"?> <svg width="512" height="512" viewBox="0 0 512 512" fill="none" xmlns="http://www.w3.org/2000/svg">
<path fill-rule="evenodd" clip-rule="evenodd" d="M256 480C379.712 480 480 379.712 480 256C480 132.288 379.712 32 256 32C132.288 32 32 132.288 32 256C32 379.712 132.288 480 256 480Z" fill="#E92B2B"/>
<path fill-rule="evenodd" clip-rule="evenodd" d="M227.969 195.177C221.686 193.115 214.973 192 208 192C172.654 192 144 220.654 144 256C144 291.346 172.654 320 208 320C214.973 320 221.686 318.885 227.969 316.823C213.989 328.779 195.838 336 176 336C131.817 336 96 300.183 96 256C96 211.817 131.817 176 176 176C195.838 176 213.989 183.221 227.969 195.177Z" fill="#FBFBFB"/>
<path d="M256.608 217.497L274.019 244.308L304.898 236.034L284.78 260.878L302.191 287.688L272.346 276.232L252.228 301.076L253.901 269.152L224.056 257.695L254.935 249.422L256.608 217.497Z" fill="#FBFBFB"/>
</svg>
