<svg width="64" height="64" viewBox="0 0 64 64" fill="none" xmlns="http://www.w3.org/2000/svg">
<path d="M33.1198 11C32.9751 10.8487 32.8012 10.7284 32.6087 10.6461C32.4162 10.5639 32.2091 10.5215 31.9998 10.5215C31.7904 10.5215 31.5833 10.5639 31.3908 10.6461C31.1983 10.7284 31.0245 10.8487 30.8798 11C30.2598 11.7 15.5098 28.25 15.5098 37C16.4098 58.87 47.5898 58.87 48.5098 37C48.4898 28.25 33.7398 11.7 33.1198 11ZM31.9998 50.5C28.4211 50.4973 24.9899 49.0739 22.4603 46.5424C19.9307 44.0109 18.5098 40.5787 18.5098 37C18.5098 31.2 27.3998 19.63 31.9998 14.27C36.5998 19.64 45.4898 31.21 45.4898 37C45.4898 40.5787 44.0688 44.0109 41.5392 46.5424C39.0097 49.0739 35.5785 50.4973 31.9998 50.5V50.5Z" fill="url(#paint0_linear_123:2873)" id="id_111"></path>
<path d="M32 44C30.1435 44 28.363 43.2625 27.0503 41.9497C25.7375 40.637 25 38.8565 25 37C25 36.6022 24.842 36.2206 24.5607 35.9393C24.2794 35.658 23.8978 35.5 23.5 35.5C23.1022 35.5 22.7206 35.658 22.4393 35.9393C22.158 36.2206 22 36.6022 22 37C22 39.6522 23.0536 42.1957 24.9289 44.0711C26.8043 45.9464 29.3478 47 32 47C32.3978 47 32.7794 46.842 33.0607 46.5607C33.342 46.2794 33.5 45.8978 33.5 45.5C33.5 45.1022 33.342 44.7206 33.0607 44.4393C32.7794 44.158 32.3978 44 32 44V44Z" fill="url(#paint1_linear_123:2873)" id="id_112"></path>
<defs>
<linearGradient id="paint0_linear_123:2873" x1="15.5098" y1="31.97" x2="48.4898" y2="31.97" gradientUnits="userSpaceOnUse">
<stop stop-color="#030303" id="id_113"></stop>
<stop offset="0.26" stop-color="#0f0f0f" id="id_114"></stop>
<stop offset="0.75" stop-color="#030303" id="id_115"></stop>
<stop offset="1" stop-color="#030303" id="id_116"></stop>
</linearGradient>
<linearGradient id="paint1_linear_123:2873" x1="274.885" y1="509.99" x2="407.02" y2="509.99" gradientUnits="userSpaceOnUse">
<stop stop-color="#0d0d0d" id="id_117"></stop>
<stop offset="0.26" stop-color="#0a0a0a" id="id_118"></stop>
<stop offset="0.75" stop-color="#050505" id="id_119"></stop>
<stop offset="1" stop-color="#030303" id="id_120"></stop>
</linearGradient>
</defs>
</svg>